<svg width="22" height="24" viewBox="0 0 22 24" fill="none" xmlns="http://www.w3.org/2000/svg">
<path fill-rule="evenodd" clip-rule="evenodd" d="M14.8448 5.26676C15.1843 5.26889 15.5208 5.20165 15.8349 5.06894C16.149 4.93623 16.4344 4.74069 16.6745 4.49366C16.9146 4.24662 17.1047 3.953 17.2337 3.6298C17.3627 3.30661 17.4282 2.96028 17.4262 2.61087C17.4147 1.91438 17.1378 1.25041 16.6552 0.762041C16.1725 0.273672 15.5228 0 14.8459 0C14.169 0 13.5193 0.273672 13.0366 0.762041C12.554 1.25041 12.2771 1.91438 12.2656 2.61087C12.2635 2.96011 12.3288 3.3063 12.4577 3.62939C12.5865 3.95248 12.7764 4.24604 13.0163 4.49307C13.2562 4.74009 13.5413 4.93568 13.8552 5.06849C14.1691 5.20129 14.5054 5.26869 14.8448 5.26676ZM19.5181 5.66831C18.0078 7.82265 16.0116 8.07305 13.8686 6.77067C13.5711 6.56824 13.2623 6.38419 12.9436 6.21949C9.48609 4.11478 6.02935 4.91636 3.74019 8.27382C2.76696 9.67697 5.05538 11.0297 5.98114 9.62735C7.19767 7.87151 8.70721 7.37148 10.3636 7.92342C9.53579 9.47695 8.75617 10.977 7.73324 13.0848C6.66136 15.2399 4.37368 16.9438 2.13273 15.6407C1.98249 15.5377 1.81378 15.4665 1.63648 15.4314C1.45919 15.3963 1.27687 15.3979 1.10019 15.4362C0.923518 15.4745 0.756041 15.5487 0.607565 15.6544C0.45909 15.7601 0.332599 15.8952 0.235497 16.0519C0.138395 16.2086 0.0726338 16.3836 0.0420624 16.5667C0.011491 16.7498 0.0167238 16.9374 0.0574545 17.1184C0.0981853 17.2994 0.173596 17.4703 0.279271 17.6209C0.384946 17.7716 0.518763 17.899 0.672888 17.9958C2.03911 18.7975 3.63837 19.0714 5.18324 18.7683C6.72811 18.4652 8.11728 17.605 9.1011 16.3423C9.15006 16.3423 9.24946 16.3919 9.29545 16.3919C10.7475 17.0133 12.1082 17.8402 13.3382 18.8485C13.922 19.3486 14.9442 21.9022 15.5287 23.2076C16.3083 24.7611 18.6442 23.658 17.915 22.0549C17.2326 20.6044 16.0643 17.695 15.1882 16.9438C14.132 16.105 13.0258 15.335 11.8761 14.6383C12.7047 13.0352 13.5326 11.4817 14.4086 9.92813C17.1844 10.7793 19.863 9.77545 21.762 7.02107C22.7352 5.61869 20.4965 4.26517 19.5225 5.66831H19.5181Z" fill="#03A454"/>
</svg>
