<svg width="28" height="28" viewBox="0 0 28 28" fill="none" xmlns="http://www.w3.org/2000/svg">
<g clip-path="url(#clip0_229_1836)">
<path d="M19.7579 7.34976C21.5113 7.34976 22.9328 5.92831 22.9328 4.17488C22.9328 2.42144 21.5113 1 19.7579 1C18.0045 1 16.583 2.42144 16.583 4.17488C16.583 5.92831 18.0045 7.34976 19.7579 7.34976Z" fill="#009FA0"/>
<path d="M14.9955 5.52881C14.8057 5.52913 14.617 5.5568 14.4353 5.6116C10.2425 6.59311 8.58862 9.34276 7.64099 12.0876C7.44592 12.8157 7.4296 13.3181 7.78967 13.9417C9.10945 15.3852 10.5171 16.7775 11.5785 18.3714V24.8143C11.5794 25.6898 12.2884 26.3988 13.164 26.3997C14.0395 26.3988 14.7485 25.6898 14.7493 24.8143V17.7864C14.7493 17.7308 14.7449 17.676 14.7389 17.6212C14.7394 17.6191 14.7406 17.6172 14.741 17.6132C15.4351 13.9292 16.2096 10.5601 16.8907 8.01809C16.934 7.85649 16.9548 7.62611 16.9548 7.48691C16.9545 6.40481 16.0776 5.52909 14.9955 5.52881ZM13.1434 9.91299C12.8294 11.2404 12.5078 12.6873 12.2112 14.0987C11.7302 13.5516 11.2396 13.0139 10.7477 12.4761C11.102 11.7042 11.923 10.5504 13.1434 9.91299Z" fill="#009FA0"/>
<path d="M18.987 13.8906C18.5784 14.9204 17.6414 15.4166 17.6414 16.5819C17.6414 17.3251 18.2438 17.9275 18.987 17.9275C19.7302 17.9275 20.3327 17.3251 20.3327 16.5819C20.3326 15.3921 19.3216 14.9204 18.987 13.8906Z" fill="#009FA0"/>
<path d="M7.34568 4.1748C6.93709 5.20455 6 5.70079 6 6.86605C6 7.60924 6.60249 8.2117 7.34568 8.2117C8.08883 8.2117 8.6913 7.60924 8.6913 6.86605C8.69126 5.67623 7.68028 5.20455 7.34568 4.1748Z" fill="#009FA0"/>
<path d="M9.57262 2.19531C9.30542 2.8691 8.69214 3.1938 8.69214 3.95627C8.69214 4.44258 9.08655 4.83675 9.57262 4.83675C10.0589 4.83675 10.4531 4.44238 10.4531 3.95627C10.4531 3.17776 9.79157 2.8691 9.57262 2.19531Z" fill="#009FA0"/>
<path d="M8.11651 1C7.95851 1.39839 7.59595 1.59032 7.59595 2.04115C7.59595 2.32875 7.82915 2.56171 8.11651 2.56171C8.4041 2.56171 8.6371 2.32851 8.6371 2.04115C8.63706 1.58084 8.24591 1.39835 8.11651 1Z" fill="#009FA0"/>
<path d="M21.1037 12.3477C20.8696 12.9376 20.3328 13.2219 20.3328 13.8895C20.3328 14.3153 20.6779 14.6604 21.1037 14.6604C21.5295 14.6604 21.8747 14.3153 21.8747 13.8895C21.8746 13.2078 21.2954 12.9376 21.1037 12.3477Z" fill="#009FA0"/>
<path d="M19.7247 10.5234C19.5401 10.9885 19.1169 11.2126 19.1169 11.7389C19.1169 12.0745 19.389 12.3466 19.7247 12.3466C20.0603 12.3466 20.3324 12.0745 20.3324 11.7389C20.3324 11.2015 19.8758 10.9885 19.7247 10.5234Z" fill="#009FA0"/>
</g>
<defs>
<clipPath id="clip0_229_1836">
<rect width="28" height="28" fill="white"/>
</clipPath>
</defs>
</svg>
