<svg width="29" height="29" viewBox="0 0 29 29" fill="none" xmlns="http://www.w3.org/2000/svg">
<path d="M9.1112 3.57669C9.04489 3.71602 9.10714 3.86852 9.26684 3.96457L11.1547 5.09522C11.6704 5.40118 12.347 4.85704 11.8341 4.54544L10.8949 3.98435L11.3388 3.95987C11.7894 3.94575 11.9897 3.52117 11.6406 3.32629L9.87718 2.27283C9.65929 2.14291 9.33315 2.15986 9.14232 2.31143C8.95556 2.463 8.97992 2.69176 9.19781 2.82263L10.0084 3.30746C9.69311 3.32158 9.21132 3.30746 9.11119 3.57765L9.1112 3.57669Z" fill="#F47B37"/>
<path d="M19.9358 2.31143C19.8112 2.15986 19.5917 2.14291 19.4453 2.27283L18.2684 3.32633C18.0344 3.52121 18.169 3.94768 18.4698 3.95993L18.7661 3.9844L18.1392 4.54551C17.7969 4.85619 18.2458 5.40129 18.5926 5.0953L19.8527 3.96462C20.0866 3.76973 19.9521 3.34326 19.6513 3.33102L19.355 3.30654L19.8961 2.82169C20.0415 2.69177 20.0578 2.46299 19.9331 2.31048L19.9358 2.31143Z" fill="#F47B37"/>
<path d="M10.0166 5.62768C10.0074 5.37706 9.80458 5.17962 9.55684 5.19145L8.50368 5.23401L8.76063 4.9491C9.02911 4.6701 8.79866 4.15938 8.4184 4.18659L6.44228 4.2658C6.198 4.27526 6.00901 4.48687 6.0171 4.7375C6.02631 4.98812 6.23257 5.18556 6.47685 5.17373L7.38482 5.13708L7.12787 5.42199C6.85939 5.70099 7.08984 6.21171 7.4701 6.1845L9.59141 6.09938C9.83569 6.08993 10.0247 5.87831 10.0166 5.62768Z" fill="#F47B37"/>
<path d="M22.6 4.26609L20.6152 4.18686C20.2332 4.15612 20.0018 4.67171 20.2714 4.94959L20.5295 5.23458L19.4717 5.19201C18.8849 5.16836 18.8583 6.07656 19.4358 6.1002C19.4532 6.1002 21.5665 6.18534 21.5838 6.18534C21.96 6.19717 22.1764 5.69459 21.9102 5.42262L21.6521 5.13762L22.5641 5.17428C23.1451 5.19793 23.1775 4.28974 22.6 4.26609Z" fill="#F47B37"/>
<path d="M19.615 6.76337C18.272 6.09014 17.1601 7.92678 18.4771 8.63999C19.4609 9.15121 19.742 9.60669 19.6898 9.78762C19.5822 10.1726 18.4397 10.9616 15.7638 11.153C19.1119 9.87388 18.1893 5.2254 14.5159 5.18555C10.8426 5.22552 9.91988 9.87388 13.268 11.153C10.5932 10.9616 9.4496 10.1726 9.34196 9.78762C9.28982 9.60669 9.5709 9.15436 10.5547 8.63999C11.1146 8.34967 11.3118 7.69223 10.999 7.17258C10.6862 6.65293 9.9778 6.4699 9.41789 6.76024C6.79746 8.12562 6.92211 9.71193 7.09667 10.3316C7.47636 11.6812 9.07786 12.6552 11.4716 13.095V20.2931H11.475L11.492 27.1115C11.492 27.7069 12.0145 28.1887 12.656 28.1855C13.2975 28.1855 13.8166 27.7006 13.8132 27.1052L13.7962 20.2919H15.2413V27.1074C15.2413 27.7027 15.7604 28.1845 16.4019 28.1845C17.0434 28.1845 17.5625 27.7027 17.5625 27.1074V13.0938C19.9563 12.6573 21.5579 11.6801 21.9375 10.3304C22.112 9.71079 22.2333 8.12452 19.6162 6.75906L19.615 6.76337Z" fill="#F47B37"/>
</svg>
